<mxfile host="65bd71144e">
    <diagram id="99Ompd47GGgC5-i2TtAw" name="Page-1">
        <mxGraphModel dx="849" dy="400" grid="1" gridSize="10" guides="1" tooltips="1" connect="1" arrows="1" fold="1" page="1" pageScale="1" pageWidth="850" pageHeight="1100" math="0" shadow="0">
            <root>
                <mxCell id="0"/>
                <mxCell id="1" parent="0"/>
                <mxCell id="23" value="" style="whiteSpace=wrap;html=1;fillColor=none;shadow=0;strokeColor=default;" parent="1" vertex="1">
                    <mxGeometry x="130" y="220" width="430" height="280" as="geometry"/>
                </mxCell>
                <mxCell id="5" value="" style="edgeStyle=none;html=1;entryX=0;entryY=0.5;entryDx=0;entryDy=0;" parent="1" source="4" target="28" edge="1">
                    <mxGeometry x="-0.1111" y="19" relative="1" as="geometry">
                        <mxPoint x="93" y="318.52" as="sourcePoint"/>
                        <mxPoint as="offset"/>
                        <mxPoint x="170" y="319" as="targetPoint"/>
                    </mxGeometry>
                </mxCell>
                <mxCell id="34" value="Send user&amp;nbsp;&lt;div&gt;actions/requests&lt;/div&gt;" style="edgeLabel;html=1;align=center;verticalAlign=middle;resizable=0;points=[];" vertex="1" connectable="0" parent="5">
                    <mxGeometry x="-0.2616" relative="1" as="geometry">
                        <mxPoint x="13" y="21" as="offset"/>
                    </mxGeometry>
                </mxCell>
                <mxCell id="7" style="edgeStyle=none;html=1;" parent="1" edge="1">
                    <mxGeometry relative="1" as="geometry">
                        <mxPoint x="270" y="280" as="sourcePoint"/>
                        <mxPoint x="380" y="280" as="targetPoint"/>
                    </mxGeometry>
                </mxCell>
                <mxCell id="38" value="Send API requests&amp;nbsp;&lt;div&gt;to server&amp;nbsp;&amp;nbsp;&lt;/div&gt;" style="edgeLabel;html=1;align=center;verticalAlign=middle;resizable=0;points=[];" vertex="1" connectable="0" parent="7">
                    <mxGeometry x="-0.1345" y="2" relative="1" as="geometry">
                        <mxPoint x="12" y="-18" as="offset"/>
                    </mxGeometry>
                </mxCell>
                <mxCell id="4" value="&lt;b&gt;Users&lt;/b&gt;" style="sketch=0;outlineConnect=0;fontColor=#232F3E;gradientColor=none;fillColor=#232F3D;strokeColor=none;dashed=0;verticalLabelPosition=bottom;verticalAlign=top;align=center;html=1;fontSize=12;fontStyle=0;aspect=fixed;pointerEvents=1;shape=mxgraph.aws4.users;shadow=0;" parent="1" vertex="1">
                    <mxGeometry x="30" y="260" width="78" height="78" as="geometry"/>
                </mxCell>
                <mxCell id="12" style="edgeStyle=none;html=1;exitX=1;exitY=0.25;exitDx=0;exitDy=0;entryX=0;entryY=0.25;entryDx=0;entryDy=0;" parent="1" source="6" target="10" edge="1">
                    <mxGeometry relative="1" as="geometry"/>
                </mxCell>
                <mxCell id="13" value="Invoke model APIs,&lt;div&gt;update model state&amp;nbsp;&lt;/div&gt;" style="edgeLabel;html=1;align=center;verticalAlign=middle;resizable=0;points=[];" parent="12" vertex="1" connectable="0">
                    <mxGeometry x="-0.053" y="4" relative="1" as="geometry">
                        <mxPoint x="7" y="-30" as="offset"/>
                    </mxGeometry>
                </mxCell>
                <mxCell id="30" style="edgeStyle=none;html=1;exitX=0.75;exitY=1;exitDx=0;exitDy=0;entryX=0.75;entryY=0;entryDx=0;entryDy=0;" edge="1" parent="1" source="6" target="11">
                    <mxGeometry relative="1" as="geometry"/>
                </mxCell>
                <mxCell id="6" value="&lt;b&gt;Server&lt;/b&gt;" style="whiteSpace=wrap;html=1;fillColor=#9DFF84;shadow=1;" parent="1" vertex="1">
                    <mxGeometry x="380" y="260" width="120" height="60" as="geometry"/>
                </mxCell>
                <mxCell id="17" style="edgeStyle=none;html=1;exitX=0;exitY=0.75;exitDx=0;exitDy=0;entryX=1;entryY=0.75;entryDx=0;entryDy=0;" parent="1" source="10" target="6" edge="1">
                    <mxGeometry relative="1" as="geometry"/>
                </mxCell>
                <mxCell id="18" value="Return model&amp;nbsp;&lt;div&gt;predictions/results&lt;span style=&quot;background-color: light-dark(#ffffff, var(--ge-dark-color, #121212));&quot;&gt;&amp;nbsp;&lt;/span&gt;&lt;/div&gt;" style="edgeLabel;html=1;align=center;verticalAlign=middle;resizable=0;points=[];" parent="17" vertex="1" connectable="0">
                    <mxGeometry x="-0.306" y="-2" relative="1" as="geometry">
                        <mxPoint x="-8" y="26" as="offset"/>
                    </mxGeometry>
                </mxCell>
                <mxCell id="10" value="&lt;b&gt;Machine Learning Model&lt;/b&gt;" style="whiteSpace=wrap;html=1;shadow=1;fillColor=#FF9999;" parent="1" vertex="1">
                    <mxGeometry x="590" y="260" width="120" height="60" as="geometry"/>
                </mxCell>
                <mxCell id="31" style="edgeStyle=none;html=1;exitX=0.25;exitY=0;exitDx=0;exitDy=0;" edge="1" parent="1">
                    <mxGeometry relative="1" as="geometry">
                        <mxPoint x="424" y="424" as="sourcePoint"/>
                        <mxPoint x="424" y="320" as="targetPoint"/>
                    </mxGeometry>
                </mxCell>
                <mxCell id="36" value="Store data (e.g.,&amp;nbsp;&lt;div&gt;user inputs, model inputs)&lt;/div&gt;" style="edgeLabel;html=1;align=center;verticalAlign=middle;resizable=0;points=[];" vertex="1" connectable="0" parent="31">
                    <mxGeometry x="-0.132" y="-2" relative="1" as="geometry">
                        <mxPoint x="64" y="1" as="offset"/>
                    </mxGeometry>
                </mxCell>
                <mxCell id="42" value="Retrieve stored&amp;nbsp;&lt;div&gt;&amp;nbsp; data&lt;/div&gt;" style="edgeLabel;html=1;align=center;verticalAlign=middle;resizable=0;points=[];" vertex="1" connectable="0" parent="31">
                    <mxGeometry x="-0.3769" y="1" relative="1" as="geometry">
                        <mxPoint x="-43" y="3" as="offset"/>
                    </mxGeometry>
                </mxCell>
                <mxCell id="11" value="&lt;div&gt;&lt;b style=&quot;background-color: transparent;&quot;&gt;Database&lt;/b&gt;&lt;/div&gt;" style="whiteSpace=wrap;html=1;shadow=1;fillColor=#9999FF;" parent="1" vertex="1">
                    <mxGeometry x="380" y="419" width="120" height="65" as="geometry"/>
                </mxCell>
                <mxCell id="28" value="&lt;b&gt;Client&lt;/b&gt;" style="rhombus;whiteSpace=wrap;html=1;fillColor=#FFFF66;shadow=1;" vertex="1" parent="1">
                    <mxGeometry x="180" y="234" width="140" height="132" as="geometry"/>
                </mxCell>
                <mxCell id="29" value="&lt;b&gt;Docker&lt;/b&gt;" style="ellipse;whiteSpace=wrap;html=1;shadow=1;fillColor=#99FFFF;" vertex="1" parent="1">
                    <mxGeometry x="140" y="410" width="90" height="64" as="geometry"/>
                </mxCell>
                <mxCell id="32" value="&lt;font style=&quot;font-size: 10px;&quot;&gt;Containerize components in Docker&lt;/font&gt;" style="whiteSpace=wrap;html=1;align=center;" vertex="1" parent="1">
                    <mxGeometry x="180" y="460" width="90" height="54" as="geometry"/>
                </mxCell>
                <mxCell id="9" value="Return processed&amp;nbsp;&lt;div&gt;&lt;span style=&quot;background-color: light-dark(#ffffff, var(--ge-dark-color, #121212));&quot;&gt;responses and d&lt;/span&gt;&lt;span style=&quot;background-color: light-dark(#ffffff, var(--ge-dark-color, #121212));&quot;&gt;ata&lt;/span&gt;&lt;/div&gt;" style="edgeStyle=none;html=1;" parent="1" edge="1">
                    <mxGeometry x="-0.1429" y="30" relative="1" as="geometry">
                        <mxPoint as="offset"/>
                        <mxPoint x="380" y="310" as="sourcePoint"/>
                        <mxPoint x="310" y="310" as="targetPoint"/>
                    </mxGeometry>
                </mxCell>
            </root>
        </mxGraphModel>
    </diagram>
</mxfile>